<?xml version="1.0" encoding="UTF-8"?>
<svg version="1.1" xmlns="http://www.w3.org/2000/svg" width="2085" height="2084">
<path d="M0 0 C0.72960938 0.57492188 1.45921875 1.14984375 2.2109375 1.7421875 C7.94991543 6.48308231 12.47628922 12.11589794 17 18 C17.6084375 18.78117187 18.216875 19.56234375 18.84375 20.3671875 C44.72757036 55.31034499 45.97681824 102.70513769 39.9050293 144.13305664 C35.98829488 168.33504103 29.70119646 191.74073051 22 215 C21.65243652 216.06959961 21.30487305 217.13919922 20.94677734 218.24121094 C11.69634228 246.62911464 -0.15858245 274.06964393 -13 301 C-13.55155762 302.16337891 -14.10311523 303.32675781 -14.67138672 304.52539062 C-26.048393 328.51086092 -38.15321067 352.02316292 -51.33642578 375.07128906 C-53.0435287 378.07663197 -54.72643997 381.0943448 -56.40234375 384.1171875 C-64.62188552 398.94115837 -73.17744878 413.52729938 -82 428 C-82.66322266 429.09022461 -83.32644531 430.18044922 -84.00976562 431.30371094 C-86.04348304 434.64286825 -88.08291762 437.97845257 -90.125 441.3125 C-91.01904541 442.77610962 -91.01904541 442.77610962 -91.93115234 444.26928711 C-98.10201828 454.29921234 -104.55286699 464.146324 -111 474 C-111.88703613 475.35582687 -111.88703613 475.35582687 -112.79199219 476.73904419 C-116.46111512 482.3437608 -120.13842618 487.94303819 -123.8215332 493.53857422 C-125.07206594 495.4394887 -126.32140303 497.34119025 -127.56958008 499.24365234 C-134.19461624 509.3409965 -140.85779039 519.38142483 -147.94604492 529.16064453 C-150.46796406 532.64690622 -152.89837449 536.18880393 -155.3125 539.75 C-159.79858191 546.3201481 -164.42029581 552.78317865 -169.09521484 559.2199707 C-172.7543885 564.26172679 -176.36062269 569.33711586 -179.9375 574.4375 C-184.20499314 580.5073731 -188.54139436 586.52260499 -192.9375 592.5 C-193.51435547 593.28713379 -194.09121094 594.07426758 -194.68554688 594.88525391 C-197.65327478 598.9108759 -200.67594607 602.87369394 -203.8125 606.76953125 C-204.7252771 607.91615234 -204.7252771 607.91615234 -205.65649414 609.0859375 C-206.81506008 610.53434345 -207.98809688 611.97133123 -209.17749023 613.39453125 C-209.69512939 614.04421875 -210.21276855 614.69390625 -210.74609375 615.36328125 C-211.20685303 615.92313721 -211.6676123 616.48299316 -212.14233398 617.05981445 C-213.77306011 620.74879269 -212.25514273 624.23411976 -211.03540039 627.89550781 C-210.64344482 628.90452148 -210.25148926 629.91353516 -209.84765625 630.953125 C-209.40599121 632.11134766 -208.96432617 633.26957031 -208.50927734 634.46289062 C-208.2737616 635.07753174 -208.03824585 635.69217285 -207.79559326 636.32543945 C-181.22894249 706.06980979 -169.4326602 781.29017435 -222.50341797 1102.70751953 C-227.44577346 1113.58070161 -232.66938204 1124.31272371 -238 1135 C-238.51175781 1136.02754395 -239.02351563 1137.05508789 -239.55078125 1138.11376953 C-259.94484197 1178.78754432 -285.82042621 1217.35716666 -315.3984375 1251.9296875 C-317.74257701 1254.67734045 -319.99883316 1257.48800228 -322.25 1260.3125 C-331.39040927 1271.53698823 -341.68844653 1281.85718104 -352 1292 C-355.05949444 1295.0487405 -358.10350013 1298.11255747 -361.14453125 1301.1796875 C-362.70045899 1302.74485315 -364.2564502 1304.3099557 -365.8125 1305.875 C-366.58142578 1306.65230469 -367.35035156 1307.42960937 -368.14257812 1308.23046875 C-372.92836248 1313.03644628 -377.84166189 1317.59820019 -383 1322 C-384.11785164 1322.973196 -385.23506752 1323.94712287 -386.3515625 1324.921875 C-393.7820745 1331.35791062 -401.36655467 1337.53682763 -409.14404297 1343.54736328 C-411.02302457 1345.01802107 -412.87416357 1346.51859474 -414.72265625 1348.02734375 C-442.21128222 1370.24122542 -473.13862627 1389.06853918 -504.31396484 1405.56884766 C-506.62420422 1406.79977142 -508.91898963 1408.05271093 -511.20703125 1409.32421875 C-580.79365211 1447.71925757 -661.35853964 1468.30441438 -740 1476 C-741.10569336 1476.11714355 -742.21138672 1476.23428711 -743.35058594 1476.35498047 C-830.50145026 1485.38122419 -919.9325904 1472.21072671 -1029.37133789 1434.14599609 C-1034.12322482 1432.09206548 -1034.12322482 1432.09206548 -1039 1433 C-1040.78471228 1434.01113924 -1040.78471228 1434.01113924 -1042.51171875 1435.30078125 C-1043.17824463 1435.77717041 -1043.84477051 1436.25355957 -1044.53149414 1436.74438477 C-1045.59871704 1437.52060181 -1045.59871704 1437.52060181 -1046.6875 1438.3125 C-1048.22126376 1439.41158451 -1049.75512052 1440.51053925 -1051.2890625 1441.609375 C-1052.0718457 1442.17333984 -1052.85462891 1442.73730469 -1053.66113281 1443.31835938 C-1057.28027912 1445.92051801 -1060.92088809 1448.49192523 -1064.5625 1451.0625 C-1065.17246826 1451.4953833 -1065.78243652 1451.9282666 -1066.41088867 1452.37426758 C-1080.57901281 1462.3999626 -1094.99451185 1472.06421128 -1109.4375 1481.6875 C-1110.35864594 1482.30150665 -1111.27979187 1482.91551331 -1112.22885132 1483.54812622 C-1126.71567443 1493.19947316 -1141.25573952 1502.74515795 -1156 1512 C-1157.25973633 1512.79422363 -1157.25973633 1512.79422363 -1158.54492188 1513.60449219 C-1189.68276806 1533.20845233 -1221.56560728 1551.63468355 -1254 1569 C-1254.76860352 1569.4139502 -1255.53720703 1569.82790039 -1256.32910156 1570.25439453 C-1261.85588223 1573.22890336 -1267.41732458 1576.13183648 -1273 1579 C-1273.89915131 1579.46212891 -1273.89915131 1579.46212891 -1274.81646729 1579.93359375 C-1352.78307194 1619.95549744 -1450.92794597 1665.93123604 -1556 1644 C-1570.62281053 1639.2927713 -1584.46211631 1632.15877638 -1596 1622 C-1597.21042969 1621.00419922 -1597.21042969 1621.00419922 -1598.4453125 1619.98828125 C-1622.15358356 1599.88455923 -1633.99368942 1569.36501402 -1637 1539 C-1637.16046054 1536.01691501 -1637.20943785 1533.03777754 -1637.23828125 1530.05078125 C-1637.25304001 1528.78760071 -1637.25304001 1528.78760071 -1637.26809692 1527.49890137 C-1637.45483546 1507.31633008 -1636.87654664 1487.87767033 -1633 1468 C-1632.75862305 1466.75782715 -1632.51724609 1465.5156543 -1632.26855469 1464.23583984 C-1628.44118417 1445.10620872 -1623.13087025 1426.51654661 -1617 1408 C-1616.65243652 1406.93040039 -1616.30487305 1405.86080078 -1615.94677734 1404.75878906 C-1599.13224848 1353.15805645 -1575.03595518 1302.93233617 -1548.5 1255.68359375 C-1546.80575318 1252.65248029 -1545.13656641 1249.60823341 -1543.46875 1246.5625 C-1535.61724443 1232.26077518 -1527.45593611 1218.18446798 -1518.97412109 1204.24804688 C-1516.89772066 1200.83171848 -1514.83281874 1197.40862831 -1512.76953125 1193.984375 C-1504.04838167 1179.52529599 -1495.1543116 1165.19000671 -1486 1151 C-1485.23671387 1149.81277344 -1485.23671387 1149.81277344 -1484.45800781 1148.6015625 C-1465.61271626 1119.30558958 -1446.03733707 1090.49131844 -1426 1062 C-1425.48050781 1061.26007813 -1424.96101563 1060.52015625 -1424.42578125 1059.7578125 C-1423.67361328 1058.68660156 -1423.67361328 1058.68660156 -1422.90625 1057.59375 C-1422.47505859 1056.97951172 -1422.04386719 1056.36527344 -1421.59960938 1055.73242188 C-1421.05111328 1054.95447266 -1420.50261719 1054.17652344 -1419.9375 1053.375 C-1419.52336853 1052.76662796 -1419.10923706 1052.15825592 -1418.68255615 1051.53144836 C-1416.11652651 1047.81356552 -1413.48633212 1044.36477617 -1410.40722656 1041.05541992 C-1403.70435598 1033.62927076 -1403.70435598 1033.62927076 -1400.76687622 1024.32263184 C-1401.22917312 1018.33667607 -1402.94581401 1012.70174732 -1404.8053894 1007.01733398 C-1405.83453017 1003.87012976 -1406.75992513 1000.70718453 -1407.66235352 997.52148438 C-1408.86644355 993.27573332 -1410.09830904 989.03987172 -1411.35058594 984.80810547 C-1413.53496757 977.28230234 -1415.10508192 969.71669952 -1416.4375 962 C-1416.65994385 960.71673828 -1416.8823877 959.43347656 -1417.11157227 958.11132812 C-1431.26747143 872.76130299 -1428.89766831 785.84278293 -1398 663 C-1397.61473145 661.75895508 -1397.22946289 660.51791016 -1396.83251953 659.23925781 C-1387.72595202 630.25450606 -1376.14798301 602.37514383 -1363 575 C-1362.32420898 573.58267578 -1362.32420898 573.58267578 -1361.63476562 572.13671875 C-1354.52559598 557.29567847 -1346.47164161 543.10137442 -1338 529 C-1337.4834082 528.13761719 -1336.96681641 527.27523437 -1336.43457031 526.38671875 C-1330.85809705 517.09869116 -1325.1553618 507.9182938 -1319 499 C-1318.23598877 497.88987549 -1318.23598877 497.88987549 -1317.45654297 496.75732422 C-1306.75216763 481.2370495 -1295.42627122 466.40243964 -1283.48388672 451.8203125 C-1282.18906012 450.2319237 -1280.90779718 448.63249729 -1279.62890625 447.03125 C-1274.91914646 441.15485247 -1269.94374016 435.59636923 -1264.77929688 430.12060547 C-1262.10572085 427.28471708 -1259.49787154 424.42217798 -1256.97265625 421.453125 C-1251.91489165 415.63879147 -1246.40407681 410.25522423 -1240.94848633 404.81811523 C-1239.06671726 402.94170525 -1237.19035262 401.06001031 -1235.31445312 399.17773438 C-1229.37788704 393.23787383 -1223.4169476 387.42531832 -1217 382 C-1215.39231627 380.54554483 -1213.78760285 379.08779105 -1212.1875 377.625 C-1206.93824117 372.89428498 -1201.50441004 368.42916306 -1196 364 C-1194.87864698 363.08625558 -1193.75756489 362.17217861 -1192.63671875 361.2578125 C-1167.36498998 340.72582931 -1140.25859193 322.18338951 -1112 306 C-1111.29149902 305.59201172 -1110.58299805 305.18402344 -1109.85302734 304.76367188 C-1104.61268711 301.75954768 -1099.3189997 298.86214278 -1094 296 C-1093.04335449 295.48211914 -1092.08670898 294.96423828 -1091.10107422 294.43066406 C-1024.27482199 258.42708801 -950.68314841 236.04833219 -837 223 C-835.9982373 222.94360352 -834.99647461 222.88720703 -833.96435547 222.82910156 C-772.3497651 219.54169327 -711.40566315 225.53029424 -651.44139099 239.78372192 C-649.46563092 240.25066788 -647.486878 240.70489362 -645.50805664 241.15869141 C-643.35674431 241.67462309 -641.21552755 242.23915152 -639.09936523 242.88427734 C-635.60520193 243.86920028 -633.22256999 244.50120633 -629.79418945 243.09570312 C-627.433073 241.58500999 -625.33365346 239.92781559 -623.1875 238.125 C-622.38417236 237.49239258 -621.58084473 236.85978516 -620.75317383 236.20800781 C-619.03853701 234.85691166 -617.33324136 233.49388984 -615.63671875 232.12011719 C-611.22377279 228.57178175 -606.69923119 225.17115797 -602.1875 221.75 C-601.29853027 221.07042236 -600.40956055 220.39084473 -599.49365234 219.69067383 C-593.02289538 214.74587991 -586.45669675 209.96778886 -579.80029297 205.27783203 C-577.06544909 203.33666403 -574.35396751 201.36360753 -571.63989258 199.39355469 C-562.82430526 192.99638601 -553.93309465 186.71449678 -544.99609375 180.48828125 C-541.87357831 178.31263555 -538.76082035 176.12463283 -535.66015625 173.91796875 C-519.20504846 162.24150457 -502.33915719 151.16783336 -485.53027344 140.01049805 C-481.97164686 137.64752887 -478.41882588 135.27602968 -474.86808777 132.90122986 C-468.41710343 128.58872995 -461.93057161 124.33969608 -455.375 120.1875 C-453.97290283 119.29840942 -453.97290283 119.29840942 -452.54248047 118.39135742 C-449.69729197 116.5905537 -446.84937886 114.79416491 -444 113 C-442.75186523 112.21351074 -442.75186523 112.21351074 -441.47851562 111.41113281 C-426.09414663 101.74184065 -410.4658129 92.48301036 -394.81591797 83.25244141 C-391.40605377 81.24104237 -388.00169995 79.22045416 -384.59765625 77.19921875 C-369.63191956 68.3492168 -354.37836306 60.10216699 -339 52 C-337.99050293 51.46632813 -336.98100586 50.93265625 -335.94091797 50.3828125 C-329.31413502 46.88228965 -322.66666515 43.42393658 -316 40 C-314.99324219 39.48228027 -313.98648437 38.96456055 -312.94921875 38.43115234 C-251.66027546 7.03297171 -184.98025909 -20.39277459 -116 -28 C-114.865625 -28.13148438 -113.73125 -28.26296875 -112.5625 -28.3984375 C-72.58396272 -32.25053614 -31.91392037 -25.65989563 0 0 Z M-213 81 C-214.57974609 81.64340332 -214.57974609 81.64340332 -216.19140625 82.29980469 C-253.43914557 97.56323128 -289.90674785 115.27600631 -325 135 C-326.83063569 136.01969909 -328.66136755 137.03922554 -330.4921875 138.05859375 C-370.55133942 160.45190849 -409.38413 184.86858631 -447.5625 210.3125 C-448.45678711 210.90832886 -449.35107422 211.50415771 -450.27246094 212.11804199 C-461.57770928 219.65539357 -472.83218344 227.26036911 -484 235 C-485.39859253 235.96885132 -485.39859253 235.96885132 -486.82543945 236.95727539 C-489.17848569 238.59201111 -491.52800091 240.23159645 -493.875 241.875 C-494.7088623 242.45886475 -495.54272461 243.04272949 -496.40185547 243.64428711 C-503.48333419 248.61497907 -510.50878142 253.66014156 -517.5078125 258.74609375 C-520.67724252 261.04838906 -523.86134997 263.32864167 -527.0546875 265.59765625 C-527.88210449 266.18796631 -528.70952148 266.77827637 -529.56201172 267.38647461 C-531.15191424 268.52023146 -532.74456782 269.65014323 -534.34033203 270.77563477 C-535.05302246 271.28537842 -535.76571289 271.79512207 -536.5 272.3203125 C-537.1290625 272.76648926 -537.758125 273.21266602 -538.40625 273.67236328 C-540.26994538 275.09696788 -540.26994538 275.09696788 -542 278 C-541.2879541 278.32049316 -540.5759082 278.64098633 -539.84228516 278.97119141 C-488.09208397 302.36761212 -439.32345313 332.40662048 -396.10546875 369.3671875 C-393.15579651 371.88338217 -390.14529582 374.31892969 -387.125 376.75 C-383.44622726 379.74199751 -380.03576847 382.83162517 -376.75219727 386.2487793 C-375.13929387 387.86078376 -373.48163165 389.31427646 -371.734375 390.77734375 C-365.51971125 396.17978696 -359.77406608 402.07722223 -353.96362305 407.90600586 C-351.94235732 409.9326298 -349.91580426 411.95385547 -347.88867188 413.97460938 C-341.7126942 420.14744967 -335.6334642 426.32106324 -330 433 C-328.5867645 434.5448126 -327.17059591 436.08695325 -325.75 437.625 C-321.65919311 442.15336348 -317.88719192 446.87391694 -314.15283203 451.69482422 C-311.23072835 455.46079818 -308.22263439 459.12521551 -305.125 462.75 C-286.53464597 485.00032998 -270.41649093 510.29132929 -256.01123047 535.41308594 C-254.96843239 537.17578638 -254.96843239 537.17578638 -253 539 C-244.6251966 528.01765709 -236.60241563 516.82748116 -228.72949219 505.48095703 C-227.13650042 503.1958099 -225.52936331 500.9217532 -223.9140625 498.65234375 C-212.84854868 483.06569795 -202.33950734 467.10201723 -191.76875305 451.17802429 C-188.57670737 446.36966546 -185.37646497 441.56690075 -182.17002869 436.76812744 C-177.48867083 429.75960388 -172.82788583 422.74215304 -168.3125 415.625 C-167.74055908 414.72402588 -167.16861816 413.82305176 -166.5793457 412.89477539 C-141.16206883 372.66523208 -117.59396582 331.3996969 -96 289 C-95.20384277 287.44853271 -95.20384277 287.44853271 -94.39160156 285.86572266 C-43.46559487 186.88899691 -43.46559487 186.88899691 -40 79.5625 C-43.24451663 70.34124222 -47.81426467 61.99656252 -56.5625 57.05859375 C-103.76483187 36.55886308 -168.48067838 62.81897269 -213 81 Z M-932 318 C-933.81951172 318.45995361 -933.81951172 318.45995361 -935.67578125 318.92919922 C-973.32313175 328.59662988 -1009.27508337 342.59334835 -1044 360 C-1045.55412598 360.77512939 -1045.55412598 360.77512939 -1047.13964844 361.56591797 C-1067.93081113 371.9871595 -1087.88831936 383.74165119 -1107 397 C-1107.56412598 397.39074707 -1108.12825195 397.78149414 -1108.70947266 398.18408203 C-1122.58153219 407.84124552 -1136.06575304 418.11968925 -1149 429 C-1149.53157715 429.44666016 -1150.0631543 429.89332031 -1150.61083984 430.35351562 C-1152.36961868 431.83512014 -1154.12318476 433.32267012 -1155.875 434.8125 C-1156.64976685 435.46810913 -1156.64976685 435.46810913 -1157.44018555 436.13696289 C-1168.11826429 445.28106692 -1178.21376903 455.04707825 -1188.13183594 465.00146484 C-1189.8914348 466.76648544 -1191.65640397 468.52601133 -1193.421875 470.28515625 C-1199.16131667 476.02087519 -1204.76856843 481.79041892 -1210 488 C-1210.97251677 489.11844261 -1211.94644613 490.23565871 -1212.921875 491.3515625 C-1277.0212417 565.34418688 -1320.29240942 655.86294232 -1344 793 C-1344.11182617 793.98661621 -1344.22365234 794.97323242 -1344.33886719 795.98974609 C-1352.94656259 874.80310855 -1342.37559615 956.27177125 -1244 1169 C-1243.51466797 1169.66402832 -1243.02933594 1170.32805664 -1242.52929688 1171.01220703 C-1223.94706551 1196.36997533 -1203.30421519 1219.75280592 -1181.125 1242 C-1180.63276947 1242.49490936 -1180.14053894 1242.98981873 -1179.63339233 1243.49972534 C-1173.93556679 1249.22108825 -1168.1491395 1254.76348259 -1162 1260 C-1160.80829313 1261.0450502 -1159.61816845 1262.09190758 -1158.4296875 1263.140625 C-1150.7290041 1269.89145381 -1142.90286937 1276.41461405 -1134.77148438 1282.640625 C-1133.01211707 1283.99070178 -1131.26393777 1285.35440336 -1129.515625 1286.71875 C-1110.74163078 1301.22099859 -1090.57032753 1314.20892111 -1070 1326 C-1069.04061523 1326.5554248 -1068.08123047 1327.11084961 -1067.09277344 1327.68310547 C-1064.0928703 1329.41159354 -1061.08049276 1331.11582616 -1058.0625 1332.8125 C-1057.13203857 1333.3472998 -1056.20157715 1333.88209961 -1055.24291992 1334.43310547 C-1054.36998291 1334.91537598 -1053.4970459 1335.39764648 -1052.59765625 1335.89453125 C-1051.82945557 1336.32612549 -1051.06125488 1336.75771973 -1050.26977539 1337.20239258 C-1047.35982917 1338.22495838 -1045.9131541 1337.9734184 -1043 1337 C-1040.62918542 1335.57559278 -1040.62918542 1335.57559278 -1038.33984375 1333.71875 C-1037.47012939 1333.04634277 -1036.60041504 1332.37393555 -1035.7043457 1331.68115234 C-1034.79128662 1330.96137207 -1033.87822754 1330.2415918 -1032.9375 1329.5 C-1031.03409724 1328.02312417 -1029.1304533 1326.54655913 -1027.2265625 1325.0703125 C-1026.31680664 1324.36036133 -1025.40705078 1323.65041016 -1024.46972656 1322.91894531 C-1021.61141621 1320.69807547 -1018.72092321 1318.529691 -1015.8125 1316.375 C-1004.16829964 1307.67091871 -992.77233375 1298.63090581 -981.3515625 1289.63671875 C-979.1000418 1287.86372825 -976.84463236 1286.09587245 -974.5859375 1284.33203125 C-966.32793064 1277.87732252 -958.17476286 1271.30137161 -950.05419922 1264.67480469 C-947.28638075 1262.41818064 -944.51371874 1260.16754958 -941.7409668 1257.91699219 C-939.08495016 1255.76085361 -936.43050801 1253.60278293 -933.77636719 1251.44433594 C-932.187373 1250.15235001 -930.59764188 1248.86127056 -929.0078125 1247.5703125 C-923.56298876 1243.13554302 -918.18362942 1238.63065342 -912.83300781 1234.08325195 C-909.44008249 1231.20408664 -906.01709624 1228.36777419 -902.5625 1225.5625 C-897.70156299 1221.60723975 -892.9459244 1217.54026529 -888.20043945 1213.44824219 C-884.59454054 1210.34573369 -880.94805175 1207.30541477 -877.25 1204.3125 C-872.87204487 1200.76021185 -868.68886349 1197.03968943 -864.5234375 1193.2421875 C-861.94917642 1190.95484096 -859.30710511 1188.78451729 -856.625 1186.625 C-852.06898641 1182.94168761 -847.75922509 1179.06847694 -843.47436523 1175.07983398 C-840.30684144 1172.14879145 -837.05920397 1169.37986806 -833.6875 1166.6875 C-827.65398983 1161.83445921 -822.07590425 1156.53733038 -816.4453125 1151.23046875 C-813.31956818 1148.2871576 -810.13126839 1145.43169781 -806.87890625 1142.62890625 C-803.73318659 1139.90174388 -800.6531973 1137.10166586 -797.5625 1134.3125 C-795.08734669 1132.07882507 -792.60631688 1129.85182284 -790.125 1127.625 C-784.8964898 1122.91934082 -779.71214601 1118.16617478 -774.53222656 1113.40722656 C-772.52152189 1111.56055643 -770.50903055 1109.7158408 -768.49633789 1107.87133789 C-767.49538863 1106.95400521 -766.49457572 1106.03652372 -765.49389648 1105.11889648 C-763.03300019 1102.86231005 -760.5704732 1100.60757133 -758.10546875 1098.35546875 C-750.01718367 1090.96015588 -741.99795329 1083.49283947 -734 1076 C-733.27490234 1075.32146973 -732.54980469 1074.64293945 -731.80273438 1073.94384766 C-729.55448927 1071.83915933 -727.30821857 1069.73238369 -725.0625 1067.625 C-724.03443237 1066.66267456 -724.03443237 1066.66267456 -722.9855957 1065.6809082 C-719.59626108 1062.49546806 -716.2632187 1059.2718577 -712.99609375 1055.9609375 C-710.4453886 1053.39003551 -707.8426389 1050.95111491 -705.09375 1048.59375 C-700.31299848 1044.47595425 -695.92361916 1039.99462429 -691.5 1035.5 C-689.88795587 1033.86208036 -688.27340139 1032.22662734 -686.65625 1030.59375 C-685.95306641 1029.87896484 -685.24988281 1029.16417969 -684.52539062 1028.42773438 C-682.52700207 1026.50662303 -680.50515059 1024.70218752 -678.40260315 1022.90061951 C-673.7530336 1018.84185365 -669.39018279 1014.5307073 -665.03295898 1010.16235352 C-664.17496704 1009.30611389 -663.3169751 1008.44987427 -662.4329834 1007.56768799 C-660.10266999 1005.24099646 -657.77458872 1002.9121017 -655.44768023 1000.58200574 C-652.99812673 998.12989904 -650.54610985 995.68025747 -648.09449768 993.23020935 C-643.97990124 989.11742603 -639.86740344 985.00255308 -635.75610352 980.88647461 C-631.02053049 976.14546062 -626.28136611 971.40805951 -621.54032081 966.67251831 C-617.45075861 962.58751175 -613.36317041 958.50053763 -609.27718979 954.41194862 C-606.84516396 951.97837346 -604.41249072 949.54545579 -601.97802544 947.11432076 C-599.262132 944.40098003 -596.54948712 941.68443151 -593.83764648 938.96704102 C-593.04316605 938.17458481 -592.24868561 937.3821286 -591.43013 936.56565857 C-587.27489448 932.39473594 -583.28052024 928.143171 -579.44867039 923.6724081 C-577.59953426 921.53768493 -575.63886699 919.54164515 -573.625 917.5625 C-572.86703125 916.81226563 -572.1090625 916.06203125 -571.328125 915.2890625 C-569.77604167 913.76302083 -568.22395833 912.23697917 -566.671875 910.7109375 C-562.46247281 906.54448839 -558.44603027 902.30017635 -554.5859375 897.80859375 C-552.33682391 895.24371791 -549.94099171 892.88355661 -547.5 890.5 C-543.71319427 886.76997377 -540.12602691 882.93765921 -536.67578125 878.89453125 C-534.30597931 876.21538454 -531.75978288 873.73358347 -529.1875 871.25 C-527.2971488 869.30563876 -525.51831145 867.32087883 -523.7421875 865.2734375 C-519.98358241 860.94613564 -516.07152675 856.78053876 -512.125 852.625 C-507.08279985 847.29256814 -502.0860609 841.93245001 -497.203125 836.453125 C-494.49812821 833.44117822 -491.75069609 830.4701688 -489 827.5 C-483.95031538 822.04386379 -478.96087874 816.53709696 -474 811 C-472.45847359 809.2915401 -470.91680647 807.58320716 -469.375 805.875 C-466.15176747 802.29486975 -462.96600883 798.68557236 -459.8046875 795.05078125 C-457.77041859 792.73911203 -455.6977769 790.4646857 -453.625 788.1875 C-450.51471149 784.74621795 -447.53521688 781.23678702 -444.625 777.625 C-440.94428153 773.07219493 -437.07351352 768.76582589 -433.08862305 764.4831543 C-429.28614986 760.37239043 -425.75736701 756.07733477 -422.24609375 751.71484375 C-419.9116941 748.89326505 -417.48009402 746.19409288 -415 743.5 C-410.96120914 739.10703825 -407.15568397 734.5819909 -403.40625 729.94140625 C-400.69413707 726.62611236 -397.91872568 723.3714973 -395.125 720.125 C-394.61670654 719.53356201 -394.10841309 718.94212402 -393.5847168 718.33276367 C-392.55839783 717.13872322 -391.53194964 715.94479384 -390.50537109 714.75097656 C-383.89359661 707.06047273 -377.41439174 699.31339284 -371.19506836 691.30078125 C-367.91167017 687.09579883 -364.49690043 683.02852381 -361 679 C-356.58393231 673.90862543 -352.3498316 668.71217458 -348.21484375 663.390625 C-344.70380764 658.87643572 -341.11740452 654.42930142 -337.5 650 C-331.57616041 642.73583094 -325.75914325 635.39518012 -320 628 C-319.09024414 626.83210937 -319.09024414 626.83210937 -318.16210938 625.640625 C-314.10440369 620.42993216 -310.05061718 615.21620476 -306 610 C-323.68644078 570.19214991 -349.01449495 533.26848305 -377 500 C-377.44666016 499.46842285 -377.89332031 498.9368457 -378.35351562 498.38916016 C-379.83512014 496.63038132 -381.32267012 494.87681524 -382.8125 493.125 C-383.46810913 492.35023315 -383.46810913 492.35023315 -384.13696289 491.55981445 C-393.54474353 480.57382586 -403.61636498 470.21875143 -413.85595703 460.01367188 C-415.76582994 458.10921495 -417.67022149 456.19939181 -419.57421875 454.2890625 C-425.54638924 448.3133515 -431.52834895 442.43980212 -438 437 C-439.08378874 436.05148355 -440.1658618 435.10100268 -441.24609375 434.1484375 C-449.48016241 426.96620802 -457.99922262 420.23540335 -466.74511719 413.68847656 C-468.26129759 412.55314702 -469.77493423 411.41441322 -471.28613281 410.27246094 C-493.36079719 393.59775664 -516.70926721 379.19064467 -541 366 C-541.8343457 365.54254395 -542.66869141 365.08508789 -543.52832031 364.61376953 C-569.29904701 350.53987998 -596.18303036 339.33728061 -624 330 C-625.0307666 329.64744141 -626.0615332 329.29488281 -627.12353516 328.93164062 C-668.50081934 314.81927942 -711.51412617 306.83658815 -755 303 C-756.13042725 302.896875 -757.26085449 302.79375 -758.42553711 302.6875 C-816.48298321 298.07486329 -875.61551287 303.74591741 -932 318 Z M-273 696 C-278.63666249 702.5633865 -284.19138839 709.1672381 -289.5 716 C-293.55262994 721.21279743 -297.72870798 726.29493323 -302.015625 731.31640625 C-304.88552676 734.67829117 -307.71070059 738.07045214 -310.5 741.5 C-314.24852646 746.1053325 -318.07084246 750.64204444 -321.91625977 755.16625977 C-324.7954532 758.55954109 -327.63204237 761.98267786 -330.4375 765.4375 C-334.39340776 770.29923279 -338.46080099 775.05588552 -342.55395508 779.80175781 C-345.63714961 783.38465096 -348.65519302 787.00934683 -351.625 790.6875 C-355.42676161 795.37450935 -359.44875816 799.81490678 -363.53515625 804.25390625 C-365.92707297 806.91875166 -368.19254884 809.64831825 -370.4375 812.4375 C-374.09765291 816.97557318 -377.95121138 821.26195791 -381.92041016 825.52587891 C-384.85135327 828.69333639 -387.6202042 831.94088652 -390.3125 835.3125 C-395.16554079 841.34601017 -400.46266962 846.92409575 -405.76953125 852.5546875 C-408.7128424 855.68043182 -411.56830219 858.86873161 -414.37109375 862.12109375 C-417.85161809 866.13579929 -421.44036524 870.05553986 -425 874 C-425.721875 874.804375 -426.44375 875.60875 -427.1875 876.4375 C-432.61644612 882.4868971 -438.09800099 888.48671886 -443.59716797 894.47216797 C-444.97356272 895.97120702 -446.34841739 897.47164076 -447.72265625 898.97265625 C-458.47038547 910.71170908 -469.27543967 922.3958789 -480.1484375 934.01904297 C-482.06973828 936.07461187 -483.98809093 938.13290568 -485.90625 940.19140625 C-497.82117661 952.96047073 -497.82117661 952.96047073 -503.875 958.8125 C-505.71821729 960.70992956 -507.43393879 962.65054575 -509.15625 964.65625 C-514.12728064 970.37982473 -519.57296081 975.61920155 -524.97265625 980.93359375 C-525.77574219 981.72894531 -526.57882812 982.52429687 -527.40625 983.34375 C-528.47842773 984.39852539 -528.47842773 984.39852539 -529.57226562 985.47460938 C-531.50932608 987.48958859 -533.33222825 989.53051269 -535.15101624 991.64903259 C-538.9381056 995.98774172 -542.93463983 1000.07565224 -547.01147461 1004.14086914 C-548.16416084 1005.29618385 -548.16416084 1005.29618385 -549.34013367 1006.47483826 C-551.8583764 1008.99744999 -554.3802213 1011.51642393 -556.90234375 1014.03515625 C-558.66693982 1015.80042678 -560.43138749 1017.56584567 -562.19569397 1019.33140564 C-566.35591297 1023.49328261 -570.51869396 1027.65258485 -574.68240601 1031.81096691 C-577.99089149 1035.1156982 -581.29682801 1038.42296358 -584.60131836 1041.73168945 C-589.17821181 1046.31439713 -593.75756365 1050.8946321 -598.33899117 1055.47280693 C-600.0775537 1057.21070521 -601.81538152 1058.94933881 -603.55244255 1060.68873787 C-605.98558514 1063.12443677 -608.42193934 1065.55687877 -610.85913086 1067.98852539 C-611.56743042 1068.69884918 -612.27572998 1069.40917297 -613.00549316 1070.14102173 C-616.97017806 1074.08911985 -621.03445753 1077.85995122 -625.28061771 1081.50435543 C-627.58353012 1083.50759721 -629.73399054 1085.63815303 -631.875 1087.8125 C-633.13570312 1089.08480469 -633.13570312 1089.08480469 -634.421875 1090.3828125 C-635.27265625 1091.24648437 -636.1234375 1092.11015625 -637 1093 C-642.25238044 1098.33196197 -647.5121683 1103.54507201 -653.1953125 1108.41796875 C-655.93089208 1110.81604176 -658.46196343 1113.39639892 -661 1116 C-664.91253596 1119.96663765 -668.89561196 1123.74585151 -673.140625 1127.359375 C-675.81013696 1129.71482673 -678.2780701 1132.25228689 -680.75 1134.8125 C-682.69690226 1136.70532164 -684.68446948 1138.48689757 -686.734375 1140.265625 C-691.01429098 1143.98333185 -695.13865728 1147.84776499 -699.25 1151.75 C-706.10889065 1158.23261102 -713.02596173 1164.64160097 -720 1171 C-721.01734324 1171.93314024 -722.03426201 1172.86674345 -723.05078125 1173.80078125 C-729.3325446 1179.57275496 -735.64986701 1185.3032569 -742 1191 C-743.66692647 1192.49971128 -745.33359149 1193.99971321 -747 1195.5 C-748.23363281 1196.60988281 -748.23363281 1196.60988281 -749.4921875 1197.7421875 C-751.18592894 1199.26708244 -752.87861169 1200.79315402 -754.5703125 1202.3203125 C-760.72450123 1207.87225646 -766.91482631 1213.37295293 -773.22265625 1218.75 C-778.78122479 1223.49079323 -784.30937974 1228.24086217 -789.6875 1233.1875 C-794.07355646 1237.21393836 -798.61741628 1240.98109722 -803.25 1244.71875 C-806.08099578 1247.06718968 -808.79383598 1249.50909902 -811.5 1252 C-815.86769492 1256.01605847 -820.36849236 1259.79385454 -824.984375 1263.51953125 C-828.54670352 1266.44968489 -832.02467961 1269.46765967 -835.5 1272.5 C-840.65422054 1276.99405182 -845.87188278 1281.3843813 -851.1875 1285.6875 C-854.52282677 1288.42987979 -857.79330693 1291.2419338 -861.0625 1294.0625 C-865.83226249 1298.17347684 -870.65803454 1302.18688551 -875.59765625 1306.09375 C-878.12721017 1308.10094075 -880.62825938 1310.13965331 -883.125 1312.1875 C-888.31708149 1316.44486077 -893.52443131 1320.68309011 -898.73803711 1324.9140625 C-902.20483109 1327.72764509 -905.66862437 1330.54471815 -909.125 1333.37109375 C-916.26464617 1339.20352893 -923.45465606 1344.94440395 -930.78515625 1350.53515625 C-934.24046892 1353.17370065 -937.65114049 1355.86752599 -941.0625 1358.5625 C-947.29679525 1363.48215697 -953.62158363 1368.26875709 -960 1373 C-959.16842846 1375.23020727 -959.16842846 1375.23020727 -956.73217773 1375.8503418 C-955.72614502 1376.13047119 -954.7201123 1376.41060059 -953.68359375 1376.69921875 C-952.54365967 1377.01785889 -951.40372559 1377.33649902 -950.22924805 1377.66479492 C-948.35233276 1378.17103394 -948.35233276 1378.17103394 -946.4375 1378.6875 C-945.79430817 1378.86229889 -945.15111633 1379.03709778 -944.48843384 1379.2171936 C-871.34970422 1399.03513262 -795.19934414 1404.3201135 -549 1339 C-547.55294678 1338.27731934 -547.55294678 1338.27731934 -546.07666016 1337.54003906 C-505.33422365 1317.1144589 -468.01202239 1290.2175777 -434 1260 C-433.29230469 1259.37351562 -432.58460938 1258.74703125 -431.85546875 1258.1015625 C-429.22118518 1255.75123985 -426.60758187 1253.37993584 -424 1251 C-423.41154297 1250.46342773 -422.82308594 1249.92685547 -422.21679688 1249.37402344 C-412.91845951 1240.8655245 -404.07977967 1232.07230182 -395.59765625 1222.75048828 C-394.07551832 1221.08274241 -392.54073003 1219.42790699 -391 1217.77734375 C-385.9476191 1212.35128907 -381.08862887 1206.81300906 -376.44140625 1201.03515625 C-374.60994263 1198.75828067 -372.76430342 1196.49777908 -370.90234375 1194.24609375 C-369.78905038 1192.89323914 -368.67576909 1191.54037459 -367.5625 1190.1875 C-367.06121582 1189.58454102 -366.55993164 1188.98158203 -366.04345703 1188.36035156 C-316.72325658 1128.1374617 -283.12752338 1054.1481391 -249.796875 867.484375 C-249.78986069 866.24192017 -249.78284637 864.99946533 -249.77561951 863.71936035 C-249.75821288 859.72955675 -249.75118478 855.73983348 -249.75 851.75 C-249.74955814 851.06918869 -249.74911629 850.38837738 -249.74866104 849.68693542 C-249.74139066 828.31263308 -250.17658367 807.21658113 -253 786 C-253.08721313 785.32803589 -253.17442627 784.65607178 -253.26428223 783.96374512 C-256.51617544 758.91964074 -261.52556459 734.35256782 -267.75 709.875 C-268.04374512 708.71178223 -268.33749023 707.54856445 -268.64013672 706.35009766 C-268.91873535 705.2832373 -269.19733398 704.21637695 -269.484375 703.1171875 C-269.85127441 701.70348877 -269.85127441 701.70348877 -270.22558594 700.26123047 C-270.87105185 697.83570793 -270.87105185 697.83570793 -273 696 Z M-1367 1117 C-1368.46580005 1118.90831309 -1369.87098187 1120.83180109 -1371.2578125 1122.796875 C-1371.69932648 1123.41914978 -1372.14084045 1124.04142456 -1372.59573364 1124.68255615 C-1378.52309783 1133.09139034 -1384.18909648 1141.6771259 -1389.875 1150.25 C-1390.98024708 1151.91290777 -1392.08571511 1153.57566871 -1393.19140625 1155.23828125 C-1395.38220122 1158.53296516 -1397.57144556 1161.82867185 -1399.75976562 1165.125 C-1402.44782738 1169.17227599 -1405.14526373 1173.21321226 -1407.84494019 1177.25274658 C-1412.54801519 1184.292623 -1417.22081381 1191.34641205 -1421.75 1198.5 C-1422.32451904 1199.40613037 -1422.89903809 1200.31226074 -1423.4909668 1201.24584961 C-1441.27425399 1229.37664521 -1458.29608685 1257.93421697 -1474.38085938 1287.0703125 C-1475.41978629 1288.95015613 -1476.46243259 1290.82795175 -1477.50976562 1292.703125 C-1544.75689764 1410.86468835 -1544.75689764 1410.86468835 -1556.03515625 1541.69921875 C-1552.35731124 1553.42668679 -1547.0208066 1560.92988758 -1536.1875 1566.75 C-1515.45749082 1576.46020461 -1490.86143358 1574.19095122 -1469 1570 C-1468.06124023 1569.82259277 -1467.12248047 1569.64518555 -1466.15527344 1569.46240234 C-1422.52096472 1560.9309181 -1380.90271002 1543.14515146 -1341 1524 C-1338.64743249 1522.88348842 -1336.29456414 1521.76761052 -1333.94140625 1520.65234375 C-1320.79576797 1514.39950512 -1307.78613453 1507.95889711 -1295 1501 C-1293.93056152 1500.41879395 -1292.86112305 1499.83758789 -1291.75927734 1499.23876953 C-1275.00102891 1490.11693801 -1258.40540617 1480.74490067 -1242 1471 C-1241.41093872 1470.65026123 -1240.82187744 1470.30052246 -1240.21496582 1469.94018555 C-1225.14835936 1460.9912711 -1210.12704934 1451.9819509 -1195.37646484 1442.51806641 C-1192.85886576 1440.9098446 -1190.33059146 1439.31940604 -1187.80078125 1437.73046875 C-1173.47616085 1428.69379956 -1159.41321524 1419.28621845 -1145.375 1409.8125 C-1143.94099854 1408.84499313 -1143.94099854 1408.84499313 -1142.47802734 1407.85794067 C-1139.72123288 1405.99675502 -1136.96573004 1404.13367848 -1134.2109375 1402.26953125 C-1133.38580658 1401.71174988 -1132.56067566 1401.15396851 -1131.71054077 1400.57928467 C-1129.4689319 1399.05969788 -1127.23392865 1397.53084509 -1125 1396 C-1124.29820618 1395.52815277 -1123.59641235 1395.05630554 -1122.87335205 1394.57015991 C-1121.21278761 1393.43104068 -1119.60042903 1392.22216767 -1118 1391 C-1118 1390.34 -1118 1389.68 -1118 1389 C-1120.28584908 1387.56309074 -1122.57675684 1386.24221932 -1124.9375 1384.9375 C-1149.14235073 1371.1165876 -1171.8182165 1354.19465661 -1193.26318359 1336.43261719 C-1195.76234405 1334.37117868 -1198.29045371 1332.34583293 -1200.8125 1330.3125 C-1205.41773356 1326.54395302 -1209.82873534 1322.59211696 -1214.19921875 1318.5546875 C-1216.37693679 1316.56831707 -1218.575284 1314.62306789 -1220.80078125 1312.69140625 C-1225.1300668 1308.91519674 -1229.32386297 1305.00662942 -1233.5 1301.0625 C-1234.20769531 1300.39798828 -1234.91539062 1299.73347656 -1235.64453125 1299.04882812 C-1242.31840746 1292.75927934 -1248.85313047 1286.41481588 -1254.828125 1279.453125 C-1257.17623209 1276.80094649 -1259.59416185 1274.22541015 -1262.02490234 1271.64916992 C-1267.43279371 1265.91514945 -1272.69120804 1260.14639289 -1277.609375 1253.98046875 C-1279.44896099 1251.68699799 -1281.31139985 1249.4256539 -1283.203125 1247.17578125 C-1291.0586111 1237.80937135 -1298.40043002 1228.19186343 -1305.44287109 1218.20117188 C-1306.94509524 1216.07761388 -1308.46381644 1213.96700411 -1309.98828125 1211.859375 C-1328.69127595 1185.88935538 -1344.55346674 1158.15763128 -1359.07421875 1129.67578125 C-1361.27006846 1125.3761908 -1363.55314026 1121.16144759 -1366 1117 C-1366.33 1117 -1366.66 1117 -1367 1117 Z " fill="#09B0EA" transform="translate(1840,231)"/>
</svg>
